<?xml version="1.0" standalone="no"?>
<svg
 viewBox="-10 -10 100 150" 
 width="800" 
 height="600"
 xmlns="http://www.w3.org/2000/svg" 
 xmlns:xlink="http://www.w3.org/1999/xlink">
<path id="krawedz_1" fill="none" stroke="#000000" stroke-width="5" d="M 55.0 105.0 L 87.0 93.0 Z "/>
<path id="krawedz_2" fill="none" stroke="#000000" stroke-width="5" d="M 55.0 105.0 L 104.0 64.0 Z "/>
<path id="krawedz_3" fill="none" stroke="#000000" stroke-width="5" d="M 55.0 105.0 L 98.0 30.0 Z "/>
<path id="krawedz_4" fill="none" stroke="#000000" stroke-width="5" d="M 55.0 105.0 L 72.0 8.0 Z "/>
<path id="krawedz_5" fill="none" stroke="#000000" stroke-width="5" d="M 55.0 105.0 L 6.0 64.0 Z "/>
<path id="krawedz_6" fill="none" stroke="#000000" stroke-width="5" d="M 55.0 105.0 L 23.0 93.0 Z "/>
<path id="krawedz_7" fill="none" stroke="#000000" stroke-width="5" d="M 87.0 93.0 L 104.0 64.0 Z "/>
<path id="krawedz_8" fill="none" stroke="#000000" stroke-width="5" d="M 87.0 93.0 L 38.0 8.0 Z "/>
<path id="krawedz_9" fill="none" stroke="#000000" stroke-width="5" d="M 87.0 93.0 L 12.0 30.0 Z "/>
<path id="krawedz_10" fill="none" stroke="#000000" stroke-width="5" d="M 104.0 64.0 L 98.0 30.0 Z "/>
<path id="krawedz_11" fill="none" stroke="#000000" stroke-width="5" d="M 104.0 64.0 L 72.0 8.0 Z "/>
<path id="krawedz_12" fill="none" stroke="#000000" stroke-width="5" d="M 104.0 64.0 L 6.0 64.0 Z "/>
<path id="krawedz_13" fill="none" stroke="#000000" stroke-width="5" d="M 104.0 64.0 L 23.0 93.0 Z "/>
<path id="krawedz_14" fill="none" stroke="#000000" stroke-width="5" d="M 72.0 8.0 L 38.0 8.0 Z "/>
<path id="krawedz_15" fill="none" stroke="#000000" stroke-width="5" d="M 72.0 8.0 L 12.0 30.0 Z "/>
<path id="krawedz_16" fill="none" stroke="#000000" stroke-width="5" d="M 38.0 8.0 L 12.0 30.0 Z "/>
<circle id="circle1" cx="55.0" cy="105.0" r="9.0" style="stroke:black; fill:white; stroke-width:1"/>
<text x="50.0" y="110.0">1</text>
<circle id="circle2" cx="87.0" cy="93.0" r="9.0" style="stroke:black; fill:white; stroke-width:1"/>
<text x="82.0" y="98.0">2</text>
<circle id="circle3" cx="104.0" cy="64.0" r="9.0" style="stroke:black; fill:white; stroke-width:1"/>
<text x="99.0" y="69.0">3</text>
<circle id="circle4" cx="98.0" cy="30.0" r="9.0" style="stroke:black; fill:white; stroke-width:1"/>
<text x="93.0" y="35.0">4</text>
<circle id="circle5" cx="72.0" cy="8.0" r="9.0" style="stroke:black; fill:white; stroke-width:1"/>
<text x="67.0" y="13.0">5</text>
<circle id="circle6" cx="38.0" cy="8.0" r="9.0" style="stroke:black; fill:white; stroke-width:1"/>
<text x="33.0" y="13.0">6</text>
<circle id="circle7" cx="12.0" cy="30.0" r="9.0" style="stroke:black; fill:white; stroke-width:1"/>
<text x="7.0" y="35.0">7</text>
<circle id="circle8" cx="6.0" cy="64.0" r="9.0" style="stroke:black; fill:white; stroke-width:1"/>
<text x="1.0" y="69.0">8</text>
<circle id="circle9" cx="23.0" cy="93.0" r="9.0" style="stroke:black; fill:white; stroke-width:1"/>
<text x="18.0" y="98.0">9</text>
</svg>