<?xml version="1.0" standalone="no"?>
<svg
 viewBox="0 0 300 280" 
 width="800" 
 height="600"
 xmlns="http://www.w3.org/2000/svg" 
 xmlns:xlink="http://www.w3.org/1999/xlink">
<path id="krawedz_1" fill="none" stroke="#000000" stroke-width="1" d="M 55.0 105.0 L 87.0 93.0 Z "/>
<path id="krawedz_2" fill="none" stroke="#000000" stroke-width="1" d="M 55.0 105.0 L 104.0 64.0 Z "/>
<path id="krawedz_3" fill="none" stroke="#000000" stroke-width="1" d="M 55.0 105.0 L 98.0 30.0 Z "/>
<path id="krawedz_4" fill="none" stroke="#000000" stroke-width="1" d="M 55.0 105.0 L 72.0 8.0 Z "/>
<path id="krawedz_5" fill="none" stroke="#000000" stroke-width="1" d="M 55.0 105.0 L 6.0 64.0 Z "/>
<path id="krawedz_6" fill="none" stroke="#000000" stroke-width="1" d="M 55.0 105.0 L 23.0 93.0 Z "/>
<path id="krawedz_7" fill="none" stroke="#000000" stroke-width="1" d="M 87.0 93.0 L 104.0 64.0 Z "/>
<path id="krawedz_8" fill="none" stroke="#000000" stroke-width="1" d="M 87.0 93.0 L 38.0 8.0 Z "/>
<path id="krawedz_9" fill="none" stroke="#000000" stroke-width="1" d="M 87.0 93.0 L 12.0 30.0 Z "/>
<path id="krawedz_10" fill="none" stroke="#000000" stroke-width="1" d="M 104.0 64.0 L 98.0 30.0 Z "/>
<path id="krawedz_11" fill="none" stroke="#000000" stroke-width="1" d="M 104.0 64.0 L 72.0 8.0 Z "/>
<path id="krawedz_12" fill="none" stroke="#000000" stroke-width="1" d="M 104.0 64.0 L 6.0 64.0 Z "/>
<path id="krawedz_13" fill="none" stroke="#000000" stroke-width="1" d="M 104.0 64.0 L 23.0 93.0 Z "/>
<path id="krawedz_14" fill="none" stroke="#000000" stroke-width="1" d="M 72.0 8.0 L 38.0 8.0 Z "/>
<path id="krawedz_15" fill="none" stroke="#000000" stroke-width="1" d="M 72.0 8.0 L 12.0 30.0 Z "/>
<path id="krawedz_16" fill="none" stroke="#000000" stroke-width="1" d="M 38.0 8.0 L 12.0 30.0 Z "/>
<circle id="circle100" cx="55.0" cy="105.0" r="3.0" style="stroke:black; fill:#FFFFFF; stroke-width:1"/>
<text x="55.0" y="106.0"  style="text-anchor: middle; font-size: 3.0px;">100</text>
<circle id="circle101" cx="87.0" cy="93.0" r="3.0" style="stroke:black; fill:#FFFFFF; stroke-width:1"/>
<text x="87.0" y="94.0"  style="text-anchor: middle; font-size: 3.0px;">101</text>
<circle id="circle102" cx="104.0" cy="64.0" r="3.0" style="stroke:black; fill:#FFFFFF; stroke-width:1"/>
<text x="104.0" y="65.0"  style="text-anchor: middle; font-size: 3.0px;">102</text>
<circle id="circle103" cx="98.0" cy="30.0" r="3.0" style="stroke:black; fill:#FFFFFF; stroke-width:1"/>
<text x="98.0" y="31.0"  style="text-anchor: middle; font-size: 3.0px;">103</text>
<circle id="circle104" cx="72.0" cy="8.0" r="3.0" style="stroke:black; fill:#FFFFFF; stroke-width:1"/>
<text x="72.0" y="9.0"  style="text-anchor: middle; font-size: 3.0px;">104</text>
<circle id="circle105" cx="38.0" cy="8.0" r="3.0" style="stroke:black; fill:#FFFFFF; stroke-width:1"/>
<text x="38.0" y="9.0"  style="text-anchor: middle; font-size: 3.0px;">105</text>
<circle id="circle106" cx="12.0" cy="30.0" r="3.0" style="stroke:black; fill:#FFFFFF; stroke-width:1"/>
<text x="12.0" y="31.0"  style="text-anchor: middle; font-size: 3.0px;">106</text>
<circle id="circle107" cx="6.0" cy="64.0" r="3.0" style="stroke:black; fill:#FFFFFF; stroke-width:1"/>
<text x="6.0" y="65.0"  style="text-anchor: middle; font-size: 3.0px;">107</text>
<circle id="circle108" cx="23.0" cy="93.0" r="3.0" style="stroke:black; fill:#FFFFFF; stroke-width:1"/>
<text x="23.0" y="94.0"  style="text-anchor: middle; font-size: 3.0px;">108</text>
</svg>