<?xml version="1.0" standalone="no"?>
<svg
 viewBox="0 0 300 280" 
 width="800" 
 height="600"
 xmlns="http://www.w3.org/2000/svg" 
 xmlns:xlink="http://www.w3.org/1999/xlink">
<path id="krawedz_1" fill="none" stroke="#000000" stroke-width="1" d="M 55.0 105.0 L 87.0 93.0 Z "/>
<path id="krawedz_2" fill="none" stroke="#000000" stroke-width="1" d="M 55.0 105.0 L 98.0 30.0 Z "/>
<path id="krawedz_3" fill="none" stroke="#000000" stroke-width="1" d="M 55.0 105.0 L 72.0 8.0 Z "/>
<path id="krawedz_4" fill="none" stroke="#000000" stroke-width="1" d="M 55.0 105.0 L 38.0 8.0 Z "/>
<path id="krawedz_5" fill="none" stroke="#000000" stroke-width="1" d="M 55.0 105.0 L 12.0 30.0 Z "/>
<path id="krawedz_6" fill="none" stroke="#000000" stroke-width="1" d="M 55.0 105.0 L 23.0 93.0 Z "/>
<path id="krawedz_7" fill="none" stroke="#000000" stroke-width="1" d="M 87.0 93.0 L 98.0 30.0 Z "/>
<path id="krawedz_8" fill="none" stroke="#000000" stroke-width="1" d="M 104.0 64.0 L 98.0 30.0 Z "/>
<path id="krawedz_9" fill="none" stroke="#000000" stroke-width="1" d="M 104.0 64.0 L 72.0 8.0 Z "/>
<path id="krawedz_10" fill="none" stroke="#000000" stroke-width="1" d="M 98.0 30.0 L 72.0 8.0 Z "/>
<path id="krawedz_11" fill="none" stroke="#000000" stroke-width="1" d="M 98.0 30.0 L 6.0 64.0 Z "/>
<path id="krawedz_12" fill="none" stroke="#000000" stroke-width="1" d="M 98.0 30.0 L 23.0 93.0 Z "/>
<path id="krawedz_13" fill="none" stroke="#000000" stroke-width="1" d="M 72.0 8.0 L 38.0 8.0 Z "/>
<path id="krawedz_14" fill="none" stroke="#000000" stroke-width="1" d="M 72.0 8.0 L 12.0 30.0 Z "/>
<path id="krawedz_15" fill="none" stroke="#000000" stroke-width="1" d="M 72.0 8.0 L 6.0 64.0 Z "/>
<circle id="circle1" cx="55.0" cy="105.0" r="3.0" style="stroke:black; fill:white; stroke-width:1"/>
<text x="55.0" y="107.0"  style="text-anchor: middle; font-size: 5px;">1</text>
<circle id="circle2" cx="87.0" cy="93.0" r="3.0" style="stroke:black; fill:white; stroke-width:1"/>
<text x="87.0" y="95.0"  style="text-anchor: middle; font-size: 5px;">2</text>
<circle id="circle3" cx="104.0" cy="64.0" r="3.0" style="stroke:black; fill:white; stroke-width:1"/>
<text x="104.0" y="66.0"  style="text-anchor: middle; font-size: 5px;">3</text>
<circle id="circle4" cx="98.0" cy="30.0" r="3.0" style="stroke:black; fill:white; stroke-width:1"/>
<text x="98.0" y="32.0"  style="text-anchor: middle; font-size: 5px;">4</text>
<circle id="circle5" cx="72.0" cy="8.0" r="3.0" style="stroke:black; fill:white; stroke-width:1"/>
<text x="72.0" y="10.0"  style="text-anchor: middle; font-size: 5px;">5</text>
<circle id="circle6" cx="38.0" cy="8.0" r="3.0" style="stroke:black; fill:white; stroke-width:1"/>
<text x="38.0" y="10.0"  style="text-anchor: middle; font-size: 5px;">6</text>
<circle id="circle7" cx="12.0" cy="30.0" r="3.0" style="stroke:black; fill:white; stroke-width:1"/>
<text x="12.0" y="32.0"  style="text-anchor: middle; font-size: 5px;">7</text>
<circle id="circle8" cx="6.0" cy="64.0" r="3.0" style="stroke:black; fill:white; stroke-width:1"/>
<text x="6.0" y="66.0"  style="text-anchor: middle; font-size: 5px;">8</text>
<circle id="circle9" cx="23.0" cy="93.0" r="3.0" style="stroke:black; fill:white; stroke-width:1"/>
<text x="23.0" y="95.0"  style="text-anchor: middle; font-size: 5px;">9</text>
</svg>